<svg width="1600" height="140" viewBox="0 0 1600 140" xmlns="http://www.w3.org/2000/svg" role="img" aria-label="AVIV animated background">
  <defs>
    <radialGradient id="aurabgf" cx="50%" cy="50%" r="75%">
      <stop offset="0%" stop-color="#FFFDF5"/>
      <stop offset="60%" stop-color="#FFF8E7"/>
      <stop offset="100%" stop-color="#FDEFD0"/>
    </radialGradient>
  </defs>

  <rect width="1600" height="140" fill="url(#aurabgf)"/>

  <clipPath id="framef"><rect width="1600" height="140"/></clipPath>
  <g clip-path="url(#framef)">
    <g>
      <animateTransform attributeName="transform" type="translate" from="0,0" to="-1600,0" dur="38s" repeatCount="indefinite"/>
      <g><g transform="translate(0.0,35.0) scale(0.89)" opacity="0.5">
  <animate attributeName="opacity" values="0.3;0.62;0.3" dur="6.0s" begin="3.1s" repeatCount="indefinite"/>
  <line x1="-14" y1="-14" x2="-20" y2="-22" stroke="#F4C94C" stroke-width="4" stroke-linecap="round"/>
  <line x1="0" y1="-18" x2="0" y2="-28" stroke="#F4C94C" stroke-width="4" stroke-linecap="round"/>
  <line x1="14" y1="-14" x2="20" y2="-22" stroke="#F4C94C" stroke-width="4" stroke-linecap="round"/>
  <line x1="-20" y1="-2" x2="-30" y2="-2" stroke="#F4C94C" stroke-width="4" stroke-linecap="round"/>
  <line x1="20" y1="-2" x2="30" y2="-2" stroke="#F4C94C" stroke-width="4" stroke-linecap="round"/>
  <path d="M -14 6 Q 0 22, 14 6" stroke="#F4C94C" stroke-width="4.5" fill="none" stroke-linecap="round"/>
</g>
<g transform="translate(123.1,35.0) scale(0.71)" opacity="0.5">
  <animate attributeName="opacity" values="0.3;0.62;0.3" dur="4.7s" begin="3.2s" repeatCount="indefinite"/>
  <line x1="-14" y1="-14" x2="-20" y2="-22" stroke="#F4C94C" stroke-width="4" stroke-linecap="round"/>
  <line x1="0" y1="-18" x2="0" y2="-28" stroke="#F4C94C" stroke-width="4" stroke-linecap="round"/>
  <line x1="14" y1="-14" x2="20" y2="-22" stroke="#F4C94C" stroke-width="4" stroke-linecap="round"/>
  <line x1="-20" y1="-2" x2="-30" y2="-2" stroke="#F4C94C" stroke-width="4" stroke-linecap="round"/>
  <line x1="20" y1="-2" x2="30" y2="-2" stroke="#F4C94C" stroke-width="4" stroke-linecap="round"/>
  <path d="M -14 6 Q 0 22, 14 6" stroke="#F4C94C" stroke-width="4.5" fill="none" stroke-linecap="round"/>
</g>
<g transform="translate(246.2,35.0) scale(0.98)" opacity="0.5">
  <animate attributeName="opacity" values="0.3;0.62;0.3" dur="5.5s" begin="0.7s" repeatCount="indefinite"/>
  <line x1="-14" y1="-14" x2="-20" y2="-22" stroke="#F4C94C" stroke-width="4" stroke-linecap="round"/>
  <line x1="0" y1="-18" x2="0" y2="-28" stroke="#F4C94C" stroke-width="4" stroke-linecap="round"/>
  <line x1="14" y1="-14" x2="20" y2="-22" stroke="#F4C94C" stroke-width="4" stroke-linecap="round"/>
  <line x1="-20" y1="-2" x2="-30" y2="-2" stroke="#F4C94C" stroke-width="4" stroke-linecap="round"/>
  <line x1="20" y1="-2" x2="30" y2="-2" stroke="#F4C94C" stroke-width="4" stroke-linecap="round"/>
  <path d="M -14 6 Q 0 22, 14 6" stroke="#F4C94C" stroke-width="4.5" fill="none" stroke-linecap="round"/>
</g>
<g transform="translate(369.2,35.0) scale(0.98)" opacity="0.5">
  <animate attributeName="opacity" values="0.3;0.62;0.3" dur="4.9s" begin="0.6s" repeatCount="indefinite"/>
  <line x1="-14" y1="-14" x2="-20" y2="-22" stroke="#F4C94C" stroke-width="4" stroke-linecap="round"/>
  <line x1="0" y1="-18" x2="0" y2="-28" stroke="#F4C94C" stroke-width="4" stroke-linecap="round"/>
  <line x1="14" y1="-14" x2="20" y2="-22" stroke="#F4C94C" stroke-width="4" stroke-linecap="round"/>
  <line x1="-20" y1="-2" x2="-30" y2="-2" stroke="#F4C94C" stroke-width="4" stroke-linecap="round"/>
  <line x1="20" y1="-2" x2="30" y2="-2" stroke="#F4C94C" stroke-width="4" stroke-linecap="round"/>
  <path d="M -14 6 Q 0 22, 14 6" stroke="#F4C94C" stroke-width="4.5" fill="none" stroke-linecap="round"/>
</g>
<g transform="translate(492.3,35.0) scale(0.88)" opacity="0.5">
  <animate attributeName="opacity" values="0.3;0.62;0.3" dur="7.0s" begin="2.9s" repeatCount="indefinite"/>
  <line x1="-14" y1="-14" x2="-20" y2="-22" stroke="#F4C94C" stroke-width="4" stroke-linecap="round"/>
  <line x1="0" y1="-18" x2="0" y2="-28" stroke="#F4C94C" stroke-width="4" stroke-linecap="round"/>
  <line x1="14" y1="-14" x2="20" y2="-22" stroke="#F4C94C" stroke-width="4" stroke-linecap="round"/>
  <line x1="-20" y1="-2" x2="-30" y2="-2" stroke="#F4C94C" stroke-width="4" stroke-linecap="round"/>
  <line x1="20" y1="-2" x2="30" y2="-2" stroke="#F4C94C" stroke-width="4" stroke-linecap="round"/>
  <path d="M -14 6 Q 0 22, 14 6" stroke="#F4C94C" stroke-width="4.5" fill="none" stroke-linecap="round"/>
</g>
<g transform="translate(615.4,35.0) scale(0.94)" opacity="0.5">
  <animate attributeName="opacity" values="0.3;0.62;0.3" dur="6.0s" begin="3.8s" repeatCount="indefinite"/>
  <line x1="-14" y1="-14" x2="-20" y2="-22" stroke="#F4C94C" stroke-width="4" stroke-linecap="round"/>
  <line x1="0" y1="-18" x2="0" y2="-28" stroke="#F4C94C" stroke-width="4" stroke-linecap="round"/>
  <line x1="14" y1="-14" x2="20" y2="-22" stroke="#F4C94C" stroke-width="4" stroke-linecap="round"/>
  <line x1="-20" y1="-2" x2="-30" y2="-2" stroke="#F4C94C" stroke-width="4" stroke-linecap="round"/>
  <line x1="20" y1="-2" x2="30" y2="-2" stroke="#F4C94C" stroke-width="4" stroke-linecap="round"/>
  <path d="M -14 6 Q 0 22, 14 6" stroke="#F4C94C" stroke-width="4.5" fill="none" stroke-linecap="round"/>
</g>
<g transform="translate(738.5,35.0) scale(1.03)" opacity="0.5">
  <animate attributeName="opacity" values="0.3;0.62;0.3" dur="5.2s" begin="0.3s" repeatCount="indefinite"/>
  <line x1="-14" y1="-14" x2="-20" y2="-22" stroke="#F4C94C" stroke-width="4" stroke-linecap="round"/>
  <line x1="0" y1="-18" x2="0" y2="-28" stroke="#F4C94C" stroke-width="4" stroke-linecap="round"/>
  <line x1="14" y1="-14" x2="20" y2="-22" stroke="#F4C94C" stroke-width="4" stroke-linecap="round"/>
  <line x1="-20" y1="-2" x2="-30" y2="-2" stroke="#F4C94C" stroke-width="4" stroke-linecap="round"/>
  <line x1="20" y1="-2" x2="30" y2="-2" stroke="#F4C94C" stroke-width="4" stroke-linecap="round"/>
  <path d="M -14 6 Q 0 22, 14 6" stroke="#F4C94C" stroke-width="4.5" fill="none" stroke-linecap="round"/>
</g>
<g transform="translate(861.5,35.0) scale(0.88)" opacity="0.5">
  <animate attributeName="opacity" values="0.3;0.62;0.3" dur="6.7s" begin="1.2s" repeatCount="indefinite"/>
  <line x1="-14" y1="-14" x2="-20" y2="-22" stroke="#F4C94C" stroke-width="4" stroke-linecap="round"/>
  <line x1="0" y1="-18" x2="0" y2="-28" stroke="#F4C94C" stroke-width="4" stroke-linecap="round"/>
  <line x1="14" y1="-14" x2="20" y2="-22" stroke="#F4C94C" stroke-width="4" stroke-linecap="round"/>
  <line x1="-20" y1="-2" x2="-30" y2="-2" stroke="#F4C94C" stroke-width="4" stroke-linecap="round"/>
  <line x1="20" y1="-2" x2="30" y2="-2" stroke="#F4C94C" stroke-width="4" stroke-linecap="round"/>
  <path d="M -14 6 Q 0 22, 14 6" stroke="#F4C94C" stroke-width="4.5" fill="none" stroke-linecap="round"/>
</g>
<g transform="translate(984.6,35.0) scale(0.92)" opacity="0.5">
  <animate attributeName="opacity" values="0.3;0.62;0.3" dur="7.0s" begin="2.1s" repeatCount="indefinite"/>
  <line x1="-14" y1="-14" x2="-20" y2="-22" stroke="#F4C94C" stroke-width="4" stroke-linecap="round"/>
  <line x1="0" y1="-18" x2="0" y2="-28" stroke="#F4C94C" stroke-width="4" stroke-linecap="round"/>
  <line x1="14" y1="-14" x2="20" y2="-22" stroke="#F4C94C" stroke-width="4" stroke-linecap="round"/>
  <line x1="-20" y1="-2" x2="-30" y2="-2" stroke="#F4C94C" stroke-width="4" stroke-linecap="round"/>
  <line x1="20" y1="-2" x2="30" y2="-2" stroke="#F4C94C" stroke-width="4" stroke-linecap="round"/>
  <path d="M -14 6 Q 0 22, 14 6" stroke="#F4C94C" stroke-width="4.5" fill="none" stroke-linecap="round"/>
</g>
<g transform="translate(1107.7,35.0) scale(0.90)" opacity="0.5">
  <animate attributeName="opacity" values="0.3;0.62;0.3" dur="5.6s" begin="1.2s" repeatCount="indefinite"/>
  <line x1="-14" y1="-14" x2="-20" y2="-22" stroke="#F4C94C" stroke-width="4" stroke-linecap="round"/>
  <line x1="0" y1="-18" x2="0" y2="-28" stroke="#F4C94C" stroke-width="4" stroke-linecap="round"/>
  <line x1="14" y1="-14" x2="20" y2="-22" stroke="#F4C94C" stroke-width="4" stroke-linecap="round"/>
  <line x1="-20" y1="-2" x2="-30" y2="-2" stroke="#F4C94C" stroke-width="4" stroke-linecap="round"/>
  <line x1="20" y1="-2" x2="30" y2="-2" stroke="#F4C94C" stroke-width="4" stroke-linecap="round"/>
  <path d="M -14 6 Q 0 22, 14 6" stroke="#F4C94C" stroke-width="4.5" fill="none" stroke-linecap="round"/>
</g>
<g transform="translate(1230.8,35.0) scale(1.00)" opacity="0.5">
  <animate attributeName="opacity" values="0.3;0.62;0.3" dur="5.1s" begin="3.6s" repeatCount="indefinite"/>
  <line x1="-14" y1="-14" x2="-20" y2="-22" stroke="#F4C94C" stroke-width="4" stroke-linecap="round"/>
  <line x1="0" y1="-18" x2="0" y2="-28" stroke="#F4C94C" stroke-width="4" stroke-linecap="round"/>
  <line x1="14" y1="-14" x2="20" y2="-22" stroke="#F4C94C" stroke-width="4" stroke-linecap="round"/>
  <line x1="-20" y1="-2" x2="-30" y2="-2" stroke="#F4C94C" stroke-width="4" stroke-linecap="round"/>
  <line x1="20" y1="-2" x2="30" y2="-2" stroke="#F4C94C" stroke-width="4" stroke-linecap="round"/>
  <path d="M -14 6 Q 0 22, 14 6" stroke="#F4C94C" stroke-width="4.5" fill="none" stroke-linecap="round"/>
</g>
<g transform="translate(1353.8,35.0) scale(1.00)" opacity="0.5">
  <animate attributeName="opacity" values="0.3;0.62;0.3" dur="6.1s" begin="3.9s" repeatCount="indefinite"/>
  <line x1="-14" y1="-14" x2="-20" y2="-22" stroke="#F4C94C" stroke-width="4" stroke-linecap="round"/>
  <line x1="0" y1="-18" x2="0" y2="-28" stroke="#F4C94C" stroke-width="4" stroke-linecap="round"/>
  <line x1="14" y1="-14" x2="20" y2="-22" stroke="#F4C94C" stroke-width="4" stroke-linecap="round"/>
  <line x1="-20" y1="-2" x2="-30" y2="-2" stroke="#F4C94C" stroke-width="4" stroke-linecap="round"/>
  <line x1="20" y1="-2" x2="30" y2="-2" stroke="#F4C94C" stroke-width="4" stroke-linecap="round"/>
  <path d="M -14 6 Q 0 22, 14 6" stroke="#F4C94C" stroke-width="4.5" fill="none" stroke-linecap="round"/>
</g>
<g transform="translate(1476.9,35.0) scale(0.90)" opacity="0.5">
  <animate attributeName="opacity" values="0.3;0.62;0.3" dur="6.1s" begin="0.8s" repeatCount="indefinite"/>
  <line x1="-14" y1="-14" x2="-20" y2="-22" stroke="#F4C94C" stroke-width="4" stroke-linecap="round"/>
  <line x1="0" y1="-18" x2="0" y2="-28" stroke="#F4C94C" stroke-width="4" stroke-linecap="round"/>
  <line x1="14" y1="-14" x2="20" y2="-22" stroke="#F4C94C" stroke-width="4" stroke-linecap="round"/>
  <line x1="-20" y1="-2" x2="-30" y2="-2" stroke="#F4C94C" stroke-width="4" stroke-linecap="round"/>
  <line x1="20" y1="-2" x2="30" y2="-2" stroke="#F4C94C" stroke-width="4" stroke-linecap="round"/>
  <path d="M -14 6 Q 0 22, 14 6" stroke="#F4C94C" stroke-width="4.5" fill="none" stroke-linecap="round"/>
</g>
<g transform="translate(61.5,105.0) scale(0.88)" opacity="0.5">
  <animate attributeName="opacity" values="0.3;0.62;0.3" dur="4.6s" begin="2.4s" repeatCount="indefinite"/>
  <line x1="-14" y1="-14" x2="-20" y2="-22" stroke="#F4C94C" stroke-width="4" stroke-linecap="round"/>
  <line x1="0" y1="-18" x2="0" y2="-28" stroke="#F4C94C" stroke-width="4" stroke-linecap="round"/>
  <line x1="14" y1="-14" x2="20" y2="-22" stroke="#F4C94C" stroke-width="4" stroke-linecap="round"/>
  <line x1="-20" y1="-2" x2="-30" y2="-2" stroke="#F4C94C" stroke-width="4" stroke-linecap="round"/>
  <line x1="20" y1="-2" x2="30" y2="-2" stroke="#F4C94C" stroke-width="4" stroke-linecap="round"/>
  <path d="M -14 6 Q 0 22, 14 6" stroke="#F4C94C" stroke-width="4.5" fill="none" stroke-linecap="round"/>
</g>
<g transform="translate(184.6,105.0) scale(1.04)" opacity="0.5">
  <animate attributeName="opacity" values="0.3;0.62;0.3" dur="5.7s" begin="2.1s" repeatCount="indefinite"/>
  <line x1="-14" y1="-14" x2="-20" y2="-22" stroke="#F4C94C" stroke-width="4" stroke-linecap="round"/>
  <line x1="0" y1="-18" x2="0" y2="-28" stroke="#F4C94C" stroke-width="4" stroke-linecap="round"/>
  <line x1="14" y1="-14" x2="20" y2="-22" stroke="#F4C94C" stroke-width="4" stroke-linecap="round"/>
  <line x1="-20" y1="-2" x2="-30" y2="-2" stroke="#F4C94C" stroke-width="4" stroke-linecap="round"/>
  <line x1="20" y1="-2" x2="30" y2="-2" stroke="#F4C94C" stroke-width="4" stroke-linecap="round"/>
  <path d="M -14 6 Q 0 22, 14 6" stroke="#F4C94C" stroke-width="4.5" fill="none" stroke-linecap="round"/>
</g>
<g transform="translate(307.7,105.0) scale(0.98)" opacity="0.5">
  <animate attributeName="opacity" values="0.3;0.62;0.3" dur="6.0s" begin="2.3s" repeatCount="indefinite"/>
  <line x1="-14" y1="-14" x2="-20" y2="-22" stroke="#F4C94C" stroke-width="4" stroke-linecap="round"/>
  <line x1="0" y1="-18" x2="0" y2="-28" stroke="#F4C94C" stroke-width="4" stroke-linecap="round"/>
  <line x1="14" y1="-14" x2="20" y2="-22" stroke="#F4C94C" stroke-width="4" stroke-linecap="round"/>
  <line x1="-20" y1="-2" x2="-30" y2="-2" stroke="#F4C94C" stroke-width="4" stroke-linecap="round"/>
  <line x1="20" y1="-2" x2="30" y2="-2" stroke="#F4C94C" stroke-width="4" stroke-linecap="round"/>
  <path d="M -14 6 Q 0 22, 14 6" stroke="#F4C94C" stroke-width="4.5" fill="none" stroke-linecap="round"/>
</g>
<g transform="translate(430.8,105.0) scale(0.94)" opacity="0.5">
  <animate attributeName="opacity" values="0.3;0.62;0.3" dur="6.1s" begin="0.3s" repeatCount="indefinite"/>
  <line x1="-14" y1="-14" x2="-20" y2="-22" stroke="#F4C94C" stroke-width="4" stroke-linecap="round"/>
  <line x1="0" y1="-18" x2="0" y2="-28" stroke="#F4C94C" stroke-width="4" stroke-linecap="round"/>
  <line x1="14" y1="-14" x2="20" y2="-22" stroke="#F4C94C" stroke-width="4" stroke-linecap="round"/>
  <line x1="-20" y1="-2" x2="-30" y2="-2" stroke="#F4C94C" stroke-width="4" stroke-linecap="round"/>
  <line x1="20" y1="-2" x2="30" y2="-2" stroke="#F4C94C" stroke-width="4" stroke-linecap="round"/>
  <path d="M -14 6 Q 0 22, 14 6" stroke="#F4C94C" stroke-width="4.5" fill="none" stroke-linecap="round"/>
</g>
<g transform="translate(553.8,105.0) scale(0.84)" opacity="0.5">
  <animate attributeName="opacity" values="0.3;0.62;0.3" dur="7.3s" begin="3.8s" repeatCount="indefinite"/>
  <line x1="-14" y1="-14" x2="-20" y2="-22" stroke="#F4C94C" stroke-width="4" stroke-linecap="round"/>
  <line x1="0" y1="-18" x2="0" y2="-28" stroke="#F4C94C" stroke-width="4" stroke-linecap="round"/>
  <line x1="14" y1="-14" x2="20" y2="-22" stroke="#F4C94C" stroke-width="4" stroke-linecap="round"/>
  <line x1="-20" y1="-2" x2="-30" y2="-2" stroke="#F4C94C" stroke-width="4" stroke-linecap="round"/>
  <line x1="20" y1="-2" x2="30" y2="-2" stroke="#F4C94C" stroke-width="4" stroke-linecap="round"/>
  <path d="M -14 6 Q 0 22, 14 6" stroke="#F4C94C" stroke-width="4.5" fill="none" stroke-linecap="round"/>
</g>
<g transform="translate(676.9,105.0) scale(0.79)" opacity="0.5">
  <animate attributeName="opacity" values="0.3;0.62;0.3" dur="4.9s" begin="1.9s" repeatCount="indefinite"/>
  <line x1="-14" y1="-14" x2="-20" y2="-22" stroke="#F4C94C" stroke-width="4" stroke-linecap="round"/>
  <line x1="0" y1="-18" x2="0" y2="-28" stroke="#F4C94C" stroke-width="4" stroke-linecap="round"/>
  <line x1="14" y1="-14" x2="20" y2="-22" stroke="#F4C94C" stroke-width="4" stroke-linecap="round"/>
  <line x1="-20" y1="-2" x2="-30" y2="-2" stroke="#F4C94C" stroke-width="4" stroke-linecap="round"/>
  <line x1="20" y1="-2" x2="30" y2="-2" stroke="#F4C94C" stroke-width="4" stroke-linecap="round"/>
  <path d="M -14 6 Q 0 22, 14 6" stroke="#F4C94C" stroke-width="4.5" fill="none" stroke-linecap="round"/>
</g>
<g transform="translate(800.0,105.0) scale(0.85)" opacity="0.5">
  <animate attributeName="opacity" values="0.3;0.62;0.3" dur="7.2s" begin="3.3s" repeatCount="indefinite"/>
  <line x1="-14" y1="-14" x2="-20" y2="-22" stroke="#F4C94C" stroke-width="4" stroke-linecap="round"/>
  <line x1="0" y1="-18" x2="0" y2="-28" stroke="#F4C94C" stroke-width="4" stroke-linecap="round"/>
  <line x1="14" y1="-14" x2="20" y2="-22" stroke="#F4C94C" stroke-width="4" stroke-linecap="round"/>
  <line x1="-20" y1="-2" x2="-30" y2="-2" stroke="#F4C94C" stroke-width="4" stroke-linecap="round"/>
  <line x1="20" y1="-2" x2="30" y2="-2" stroke="#F4C94C" stroke-width="4" stroke-linecap="round"/>
  <path d="M -14 6 Q 0 22, 14 6" stroke="#F4C94C" stroke-width="4.5" fill="none" stroke-linecap="round"/>
</g>
<g transform="translate(923.1,105.0) scale(0.87)" opacity="0.5">
  <animate attributeName="opacity" values="0.3;0.62;0.3" dur="5.1s" begin="1.3s" repeatCount="indefinite"/>
  <line x1="-14" y1="-14" x2="-20" y2="-22" stroke="#F4C94C" stroke-width="4" stroke-linecap="round"/>
  <line x1="0" y1="-18" x2="0" y2="-28" stroke="#F4C94C" stroke-width="4" stroke-linecap="round"/>
  <line x1="14" y1="-14" x2="20" y2="-22" stroke="#F4C94C" stroke-width="4" stroke-linecap="round"/>
  <line x1="-20" y1="-2" x2="-30" y2="-2" stroke="#F4C94C" stroke-width="4" stroke-linecap="round"/>
  <line x1="20" y1="-2" x2="30" y2="-2" stroke="#F4C94C" stroke-width="4" stroke-linecap="round"/>
  <path d="M -14 6 Q 0 22, 14 6" stroke="#F4C94C" stroke-width="4.5" fill="none" stroke-linecap="round"/>
</g>
<g transform="translate(1046.2,105.0) scale(0.92)" opacity="0.5">
  <animate attributeName="opacity" values="0.3;0.62;0.3" dur="4.9s" begin="3.7s" repeatCount="indefinite"/>
  <line x1="-14" y1="-14" x2="-20" y2="-22" stroke="#F4C94C" stroke-width="4" stroke-linecap="round"/>
  <line x1="0" y1="-18" x2="0" y2="-28" stroke="#F4C94C" stroke-width="4" stroke-linecap="round"/>
  <line x1="14" y1="-14" x2="20" y2="-22" stroke="#F4C94C" stroke-width="4" stroke-linecap="round"/>
  <line x1="-20" y1="-2" x2="-30" y2="-2" stroke="#F4C94C" stroke-width="4" stroke-linecap="round"/>
  <line x1="20" y1="-2" x2="30" y2="-2" stroke="#F4C94C" stroke-width="4" stroke-linecap="round"/>
  <path d="M -14 6 Q 0 22, 14 6" stroke="#F4C94C" stroke-width="4.5" fill="none" stroke-linecap="round"/>
</g>
<g transform="translate(1169.2,105.0) scale(0.97)" opacity="0.5">
  <animate attributeName="opacity" values="0.3;0.62;0.3" dur="5.1s" begin="0.1s" repeatCount="indefinite"/>
  <line x1="-14" y1="-14" x2="-20" y2="-22" stroke="#F4C94C" stroke-width="4" stroke-linecap="round"/>
  <line x1="0" y1="-18" x2="0" y2="-28" stroke="#F4C94C" stroke-width="4" stroke-linecap="round"/>
  <line x1="14" y1="-14" x2="20" y2="-22" stroke="#F4C94C" stroke-width="4" stroke-linecap="round"/>
  <line x1="-20" y1="-2" x2="-30" y2="-2" stroke="#F4C94C" stroke-width="4" stroke-linecap="round"/>
  <line x1="20" y1="-2" x2="30" y2="-2" stroke="#F4C94C" stroke-width="4" stroke-linecap="round"/>
  <path d="M -14 6 Q 0 22, 14 6" stroke="#F4C94C" stroke-width="4.5" fill="none" stroke-linecap="round"/>
</g>
<g transform="translate(1292.3,105.0) scale(0.78)" opacity="0.5">
  <animate attributeName="opacity" values="0.3;0.62;0.3" dur="5.5s" begin="2.7s" repeatCount="indefinite"/>
  <line x1="-14" y1="-14" x2="-20" y2="-22" stroke="#F4C94C" stroke-width="4" stroke-linecap="round"/>
  <line x1="0" y1="-18" x2="0" y2="-28" stroke="#F4C94C" stroke-width="4" stroke-linecap="round"/>
  <line x1="14" y1="-14" x2="20" y2="-22" stroke="#F4C94C" stroke-width="4" stroke-linecap="round"/>
  <line x1="-20" y1="-2" x2="-30" y2="-2" stroke="#F4C94C" stroke-width="4" stroke-linecap="round"/>
  <line x1="20" y1="-2" x2="30" y2="-2" stroke="#F4C94C" stroke-width="4" stroke-linecap="round"/>
  <path d="M -14 6 Q 0 22, 14 6" stroke="#F4C94C" stroke-width="4.5" fill="none" stroke-linecap="round"/>
</g>
<g transform="translate(1415.4,105.0) scale(0.82)" opacity="0.5">
  <animate attributeName="opacity" values="0.3;0.62;0.3" dur="4.8s" begin="2.5s" repeatCount="indefinite"/>
  <line x1="-14" y1="-14" x2="-20" y2="-22" stroke="#F4C94C" stroke-width="4" stroke-linecap="round"/>
  <line x1="0" y1="-18" x2="0" y2="-28" stroke="#F4C94C" stroke-width="4" stroke-linecap="round"/>
  <line x1="14" y1="-14" x2="20" y2="-22" stroke="#F4C94C" stroke-width="4" stroke-linecap="round"/>
  <line x1="-20" y1="-2" x2="-30" y2="-2" stroke="#F4C94C" stroke-width="4" stroke-linecap="round"/>
  <line x1="20" y1="-2" x2="30" y2="-2" stroke="#F4C94C" stroke-width="4" stroke-linecap="round"/>
  <path d="M -14 6 Q 0 22, 14 6" stroke="#F4C94C" stroke-width="4.5" fill="none" stroke-linecap="round"/>
</g>
<g transform="translate(1538.5,105.0) scale(0.96)" opacity="0.5">
  <animate attributeName="opacity" values="0.3;0.62;0.3" dur="6.0s" begin="0.5s" repeatCount="indefinite"/>
  <line x1="-14" y1="-14" x2="-20" y2="-22" stroke="#F4C94C" stroke-width="4" stroke-linecap="round"/>
  <line x1="0" y1="-18" x2="0" y2="-28" stroke="#F4C94C" stroke-width="4" stroke-linecap="round"/>
  <line x1="14" y1="-14" x2="20" y2="-22" stroke="#F4C94C" stroke-width="4" stroke-linecap="round"/>
  <line x1="-20" y1="-2" x2="-30" y2="-2" stroke="#F4C94C" stroke-width="4" stroke-linecap="round"/>
  <line x1="20" y1="-2" x2="30" y2="-2" stroke="#F4C94C" stroke-width="4" stroke-linecap="round"/>
  <path d="M -14 6 Q 0 22, 14 6" stroke="#F4C94C" stroke-width="4.5" fill="none" stroke-linecap="round"/>
</g></g>
      <g transform="translate(1600,0)"><g transform="translate(0.0,35.0) scale(0.79)" opacity="0.5">
  <animate attributeName="opacity" values="0.3;0.62;0.3" dur="6.1s" begin="0.8s" repeatCount="indefinite"/>
  <line x1="-14" y1="-14" x2="-20" y2="-22" stroke="#F4C94C" stroke-width="4" stroke-linecap="round"/>
  <line x1="0" y1="-18" x2="0" y2="-28" stroke="#F4C94C" stroke-width="4" stroke-linecap="round"/>
  <line x1="14" y1="-14" x2="20" y2="-22" stroke="#F4C94C" stroke-width="4" stroke-linecap="round"/>
  <line x1="-20" y1="-2" x2="-30" y2="-2" stroke="#F4C94C" stroke-width="4" stroke-linecap="round"/>
  <line x1="20" y1="-2" x2="30" y2="-2" stroke="#F4C94C" stroke-width="4" stroke-linecap="round"/>
  <path d="M -14 6 Q 0 22, 14 6" stroke="#F4C94C" stroke-width="4.5" fill="none" stroke-linecap="round"/>
</g>
<g transform="translate(123.1,35.0) scale(0.85)" opacity="0.5">
  <animate attributeName="opacity" values="0.3;0.62;0.3" dur="5.7s" begin="1.5s" repeatCount="indefinite"/>
  <line x1="-14" y1="-14" x2="-20" y2="-22" stroke="#F4C94C" stroke-width="4" stroke-linecap="round"/>
  <line x1="0" y1="-18" x2="0" y2="-28" stroke="#F4C94C" stroke-width="4" stroke-linecap="round"/>
  <line x1="14" y1="-14" x2="20" y2="-22" stroke="#F4C94C" stroke-width="4" stroke-linecap="round"/>
  <line x1="-20" y1="-2" x2="-30" y2="-2" stroke="#F4C94C" stroke-width="4" stroke-linecap="round"/>
  <line x1="20" y1="-2" x2="30" y2="-2" stroke="#F4C94C" stroke-width="4" stroke-linecap="round"/>
  <path d="M -14 6 Q 0 22, 14 6" stroke="#F4C94C" stroke-width="4.5" fill="none" stroke-linecap="round"/>
</g>
<g transform="translate(246.2,35.0) scale(0.89)" opacity="0.5">
  <animate attributeName="opacity" values="0.3;0.62;0.3" dur="5.1s" begin="0.6s" repeatCount="indefinite"/>
  <line x1="-14" y1="-14" x2="-20" y2="-22" stroke="#F4C94C" stroke-width="4" stroke-linecap="round"/>
  <line x1="0" y1="-18" x2="0" y2="-28" stroke="#F4C94C" stroke-width="4" stroke-linecap="round"/>
  <line x1="14" y1="-14" x2="20" y2="-22" stroke="#F4C94C" stroke-width="4" stroke-linecap="round"/>
  <line x1="-20" y1="-2" x2="-30" y2="-2" stroke="#F4C94C" stroke-width="4" stroke-linecap="round"/>
  <line x1="20" y1="-2" x2="30" y2="-2" stroke="#F4C94C" stroke-width="4" stroke-linecap="round"/>
  <path d="M -14 6 Q 0 22, 14 6" stroke="#F4C94C" stroke-width="4.5" fill="none" stroke-linecap="round"/>
</g>
<g transform="translate(369.2,35.0) scale(0.92)" opacity="0.5">
  <animate attributeName="opacity" values="0.3;0.62;0.3" dur="6.1s" begin="2.6s" repeatCount="indefinite"/>
  <line x1="-14" y1="-14" x2="-20" y2="-22" stroke="#F4C94C" stroke-width="4" stroke-linecap="round"/>
  <line x1="0" y1="-18" x2="0" y2="-28" stroke="#F4C94C" stroke-width="4" stroke-linecap="round"/>
  <line x1="14" y1="-14" x2="20" y2="-22" stroke="#F4C94C" stroke-width="4" stroke-linecap="round"/>
  <line x1="-20" y1="-2" x2="-30" y2="-2" stroke="#F4C94C" stroke-width="4" stroke-linecap="round"/>
  <line x1="20" y1="-2" x2="30" y2="-2" stroke="#F4C94C" stroke-width="4" stroke-linecap="round"/>
  <path d="M -14 6 Q 0 22, 14 6" stroke="#F4C94C" stroke-width="4.5" fill="none" stroke-linecap="round"/>
</g>
<g transform="translate(492.3,35.0) scale(1.00)" opacity="0.5">
  <animate attributeName="opacity" values="0.3;0.62;0.3" dur="7.1s" begin="2.4s" repeatCount="indefinite"/>
  <line x1="-14" y1="-14" x2="-20" y2="-22" stroke="#F4C94C" stroke-width="4" stroke-linecap="round"/>
  <line x1="0" y1="-18" x2="0" y2="-28" stroke="#F4C94C" stroke-width="4" stroke-linecap="round"/>
  <line x1="14" y1="-14" x2="20" y2="-22" stroke="#F4C94C" stroke-width="4" stroke-linecap="round"/>
  <line x1="-20" y1="-2" x2="-30" y2="-2" stroke="#F4C94C" stroke-width="4" stroke-linecap="round"/>
  <line x1="20" y1="-2" x2="30" y2="-2" stroke="#F4C94C" stroke-width="4" stroke-linecap="round"/>
  <path d="M -14 6 Q 0 22, 14 6" stroke="#F4C94C" stroke-width="4.5" fill="none" stroke-linecap="round"/>
</g>
<g transform="translate(615.4,35.0) scale(0.78)" opacity="0.5">
  <animate attributeName="opacity" values="0.3;0.62;0.3" dur="6.9s" begin="3.0s" repeatCount="indefinite"/>
  <line x1="-14" y1="-14" x2="-20" y2="-22" stroke="#F4C94C" stroke-width="4" stroke-linecap="round"/>
  <line x1="0" y1="-18" x2="0" y2="-28" stroke="#F4C94C" stroke-width="4" stroke-linecap="round"/>
  <line x1="14" y1="-14" x2="20" y2="-22" stroke="#F4C94C" stroke-width="4" stroke-linecap="round"/>
  <line x1="-20" y1="-2" x2="-30" y2="-2" stroke="#F4C94C" stroke-width="4" stroke-linecap="round"/>
  <line x1="20" y1="-2" x2="30" y2="-2" stroke="#F4C94C" stroke-width="4" stroke-linecap="round"/>
  <path d="M -14 6 Q 0 22, 14 6" stroke="#F4C94C" stroke-width="4.5" fill="none" stroke-linecap="round"/>
</g>
<g transform="translate(738.5,35.0) scale(1.02)" opacity="0.5">
  <animate attributeName="opacity" values="0.3;0.62;0.3" dur="5.4s" begin="1.3s" repeatCount="indefinite"/>
  <line x1="-14" y1="-14" x2="-20" y2="-22" stroke="#F4C94C" stroke-width="4" stroke-linecap="round"/>
  <line x1="0" y1="-18" x2="0" y2="-28" stroke="#F4C94C" stroke-width="4" stroke-linecap="round"/>
  <line x1="14" y1="-14" x2="20" y2="-22" stroke="#F4C94C" stroke-width="4" stroke-linecap="round"/>
  <line x1="-20" y1="-2" x2="-30" y2="-2" stroke="#F4C94C" stroke-width="4" stroke-linecap="round"/>
  <line x1="20" y1="-2" x2="30" y2="-2" stroke="#F4C94C" stroke-width="4" stroke-linecap="round"/>
  <path d="M -14 6 Q 0 22, 14 6" stroke="#F4C94C" stroke-width="4.5" fill="none" stroke-linecap="round"/>
</g>
<g transform="translate(861.5,35.0) scale(1.02)" opacity="0.5">
  <animate attributeName="opacity" values="0.3;0.62;0.3" dur="7.5s" begin="0.9s" repeatCount="indefinite"/>
  <line x1="-14" y1="-14" x2="-20" y2="-22" stroke="#F4C94C" stroke-width="4" stroke-linecap="round"/>
  <line x1="0" y1="-18" x2="0" y2="-28" stroke="#F4C94C" stroke-width="4" stroke-linecap="round"/>
  <line x1="14" y1="-14" x2="20" y2="-22" stroke="#F4C94C" stroke-width="4" stroke-linecap="round"/>
  <line x1="-20" y1="-2" x2="-30" y2="-2" stroke="#F4C94C" stroke-width="4" stroke-linecap="round"/>
  <line x1="20" y1="-2" x2="30" y2="-2" stroke="#F4C94C" stroke-width="4" stroke-linecap="round"/>
  <path d="M -14 6 Q 0 22, 14 6" stroke="#F4C94C" stroke-width="4.5" fill="none" stroke-linecap="round"/>
</g>
<g transform="translate(984.6,35.0) scale(1.01)" opacity="0.5">
  <animate attributeName="opacity" values="0.3;0.62;0.3" dur="5.2s" begin="0.5s" repeatCount="indefinite"/>
  <line x1="-14" y1="-14" x2="-20" y2="-22" stroke="#F4C94C" stroke-width="4" stroke-linecap="round"/>
  <line x1="0" y1="-18" x2="0" y2="-28" stroke="#F4C94C" stroke-width="4" stroke-linecap="round"/>
  <line x1="14" y1="-14" x2="20" y2="-22" stroke="#F4C94C" stroke-width="4" stroke-linecap="round"/>
  <line x1="-20" y1="-2" x2="-30" y2="-2" stroke="#F4C94C" stroke-width="4" stroke-linecap="round"/>
  <line x1="20" y1="-2" x2="30" y2="-2" stroke="#F4C94C" stroke-width="4" stroke-linecap="round"/>
  <path d="M -14 6 Q 0 22, 14 6" stroke="#F4C94C" stroke-width="4.5" fill="none" stroke-linecap="round"/>
</g>
<g transform="translate(1107.7,35.0) scale(0.95)" opacity="0.5">
  <animate attributeName="opacity" values="0.3;0.62;0.3" dur="4.8s" begin="1.0s" repeatCount="indefinite"/>
  <line x1="-14" y1="-14" x2="-20" y2="-22" stroke="#F4C94C" stroke-width="4" stroke-linecap="round"/>
  <line x1="0" y1="-18" x2="0" y2="-28" stroke="#F4C94C" stroke-width="4" stroke-linecap="round"/>
  <line x1="14" y1="-14" x2="20" y2="-22" stroke="#F4C94C" stroke-width="4" stroke-linecap="round"/>
  <line x1="-20" y1="-2" x2="-30" y2="-2" stroke="#F4C94C" stroke-width="4" stroke-linecap="round"/>
  <line x1="20" y1="-2" x2="30" y2="-2" stroke="#F4C94C" stroke-width="4" stroke-linecap="round"/>
  <path d="M -14 6 Q 0 22, 14 6" stroke="#F4C94C" stroke-width="4.5" fill="none" stroke-linecap="round"/>
</g>
<g transform="translate(1230.8,35.0) scale(0.99)" opacity="0.5">
  <animate attributeName="opacity" values="0.3;0.62;0.3" dur="6.9s" begin="1.7s" repeatCount="indefinite"/>
  <line x1="-14" y1="-14" x2="-20" y2="-22" stroke="#F4C94C" stroke-width="4" stroke-linecap="round"/>
  <line x1="0" y1="-18" x2="0" y2="-28" stroke="#F4C94C" stroke-width="4" stroke-linecap="round"/>
  <line x1="14" y1="-14" x2="20" y2="-22" stroke="#F4C94C" stroke-width="4" stroke-linecap="round"/>
  <line x1="-20" y1="-2" x2="-30" y2="-2" stroke="#F4C94C" stroke-width="4" stroke-linecap="round"/>
  <line x1="20" y1="-2" x2="30" y2="-2" stroke="#F4C94C" stroke-width="4" stroke-linecap="round"/>
  <path d="M -14 6 Q 0 22, 14 6" stroke="#F4C94C" stroke-width="4.5" fill="none" stroke-linecap="round"/>
</g>
<g transform="translate(1353.8,35.0) scale(0.74)" opacity="0.5">
  <animate attributeName="opacity" values="0.3;0.62;0.3" dur="6.6s" begin="1.6s" repeatCount="indefinite"/>
  <line x1="-14" y1="-14" x2="-20" y2="-22" stroke="#F4C94C" stroke-width="4" stroke-linecap="round"/>
  <line x1="0" y1="-18" x2="0" y2="-28" stroke="#F4C94C" stroke-width="4" stroke-linecap="round"/>
  <line x1="14" y1="-14" x2="20" y2="-22" stroke="#F4C94C" stroke-width="4" stroke-linecap="round"/>
  <line x1="-20" y1="-2" x2="-30" y2="-2" stroke="#F4C94C" stroke-width="4" stroke-linecap="round"/>
  <line x1="20" y1="-2" x2="30" y2="-2" stroke="#F4C94C" stroke-width="4" stroke-linecap="round"/>
  <path d="M -14 6 Q 0 22, 14 6" stroke="#F4C94C" stroke-width="4.5" fill="none" stroke-linecap="round"/>
</g>
<g transform="translate(1476.9,35.0) scale(0.71)" opacity="0.5">
  <animate attributeName="opacity" values="0.3;0.62;0.3" dur="6.5s" begin="0.8s" repeatCount="indefinite"/>
  <line x1="-14" y1="-14" x2="-20" y2="-22" stroke="#F4C94C" stroke-width="4" stroke-linecap="round"/>
  <line x1="0" y1="-18" x2="0" y2="-28" stroke="#F4C94C" stroke-width="4" stroke-linecap="round"/>
  <line x1="14" y1="-14" x2="20" y2="-22" stroke="#F4C94C" stroke-width="4" stroke-linecap="round"/>
  <line x1="-20" y1="-2" x2="-30" y2="-2" stroke="#F4C94C" stroke-width="4" stroke-linecap="round"/>
  <line x1="20" y1="-2" x2="30" y2="-2" stroke="#F4C94C" stroke-width="4" stroke-linecap="round"/>
  <path d="M -14 6 Q 0 22, 14 6" stroke="#F4C94C" stroke-width="4.5" fill="none" stroke-linecap="round"/>
</g>
<g transform="translate(61.5,105.0) scale(1.02)" opacity="0.5">
  <animate attributeName="opacity" values="0.3;0.62;0.3" dur="4.8s" begin="3.9s" repeatCount="indefinite"/>
  <line x1="-14" y1="-14" x2="-20" y2="-22" stroke="#F4C94C" stroke-width="4" stroke-linecap="round"/>
  <line x1="0" y1="-18" x2="0" y2="-28" stroke="#F4C94C" stroke-width="4" stroke-linecap="round"/>
  <line x1="14" y1="-14" x2="20" y2="-22" stroke="#F4C94C" stroke-width="4" stroke-linecap="round"/>
  <line x1="-20" y1="-2" x2="-30" y2="-2" stroke="#F4C94C" stroke-width="4" stroke-linecap="round"/>
  <line x1="20" y1="-2" x2="30" y2="-2" stroke="#F4C94C" stroke-width="4" stroke-linecap="round"/>
  <path d="M -14 6 Q 0 22, 14 6" stroke="#F4C94C" stroke-width="4.5" fill="none" stroke-linecap="round"/>
</g>
<g transform="translate(184.6,105.0) scale(0.88)" opacity="0.5">
  <animate attributeName="opacity" values="0.3;0.62;0.3" dur="6.0s" begin="3.0s" repeatCount="indefinite"/>
  <line x1="-14" y1="-14" x2="-20" y2="-22" stroke="#F4C94C" stroke-width="4" stroke-linecap="round"/>
  <line x1="0" y1="-18" x2="0" y2="-28" stroke="#F4C94C" stroke-width="4" stroke-linecap="round"/>
  <line x1="14" y1="-14" x2="20" y2="-22" stroke="#F4C94C" stroke-width="4" stroke-linecap="round"/>
  <line x1="-20" y1="-2" x2="-30" y2="-2" stroke="#F4C94C" stroke-width="4" stroke-linecap="round"/>
  <line x1="20" y1="-2" x2="30" y2="-2" stroke="#F4C94C" stroke-width="4" stroke-linecap="round"/>
  <path d="M -14 6 Q 0 22, 14 6" stroke="#F4C94C" stroke-width="4.5" fill="none" stroke-linecap="round"/>
</g>
<g transform="translate(307.7,105.0) scale(0.94)" opacity="0.5">
  <animate attributeName="opacity" values="0.3;0.62;0.3" dur="4.7s" begin="0.8s" repeatCount="indefinite"/>
  <line x1="-14" y1="-14" x2="-20" y2="-22" stroke="#F4C94C" stroke-width="4" stroke-linecap="round"/>
  <line x1="0" y1="-18" x2="0" y2="-28" stroke="#F4C94C" stroke-width="4" stroke-linecap="round"/>
  <line x1="14" y1="-14" x2="20" y2="-22" stroke="#F4C94C" stroke-width="4" stroke-linecap="round"/>
  <line x1="-20" y1="-2" x2="-30" y2="-2" stroke="#F4C94C" stroke-width="4" stroke-linecap="round"/>
  <line x1="20" y1="-2" x2="30" y2="-2" stroke="#F4C94C" stroke-width="4" stroke-linecap="round"/>
  <path d="M -14 6 Q 0 22, 14 6" stroke="#F4C94C" stroke-width="4.5" fill="none" stroke-linecap="round"/>
</g>
<g transform="translate(430.8,105.0) scale(0.74)" opacity="0.5">
  <animate attributeName="opacity" values="0.3;0.62;0.3" dur="6.2s" begin="0.1s" repeatCount="indefinite"/>
  <line x1="-14" y1="-14" x2="-20" y2="-22" stroke="#F4C94C" stroke-width="4" stroke-linecap="round"/>
  <line x1="0" y1="-18" x2="0" y2="-28" stroke="#F4C94C" stroke-width="4" stroke-linecap="round"/>
  <line x1="14" y1="-14" x2="20" y2="-22" stroke="#F4C94C" stroke-width="4" stroke-linecap="round"/>
  <line x1="-20" y1="-2" x2="-30" y2="-2" stroke="#F4C94C" stroke-width="4" stroke-linecap="round"/>
  <line x1="20" y1="-2" x2="30" y2="-2" stroke="#F4C94C" stroke-width="4" stroke-linecap="round"/>
  <path d="M -14 6 Q 0 22, 14 6" stroke="#F4C94C" stroke-width="4.5" fill="none" stroke-linecap="round"/>
</g>
<g transform="translate(553.8,105.0) scale(0.88)" opacity="0.5">
  <animate attributeName="opacity" values="0.3;0.62;0.3" dur="4.9s" begin="2.3s" repeatCount="indefinite"/>
  <line x1="-14" y1="-14" x2="-20" y2="-22" stroke="#F4C94C" stroke-width="4" stroke-linecap="round"/>
  <line x1="0" y1="-18" x2="0" y2="-28" stroke="#F4C94C" stroke-width="4" stroke-linecap="round"/>
  <line x1="14" y1="-14" x2="20" y2="-22" stroke="#F4C94C" stroke-width="4" stroke-linecap="round"/>
  <line x1="-20" y1="-2" x2="-30" y2="-2" stroke="#F4C94C" stroke-width="4" stroke-linecap="round"/>
  <line x1="20" y1="-2" x2="30" y2="-2" stroke="#F4C94C" stroke-width="4" stroke-linecap="round"/>
  <path d="M -14 6 Q 0 22, 14 6" stroke="#F4C94C" stroke-width="4.5" fill="none" stroke-linecap="round"/>
</g>
<g transform="translate(676.9,105.0) scale(0.76)" opacity="0.5">
  <animate attributeName="opacity" values="0.3;0.62;0.3" dur="7.0s" begin="0.8s" repeatCount="indefinite"/>
  <line x1="-14" y1="-14" x2="-20" y2="-22" stroke="#F4C94C" stroke-width="4" stroke-linecap="round"/>
  <line x1="0" y1="-18" x2="0" y2="-28" stroke="#F4C94C" stroke-width="4" stroke-linecap="round"/>
  <line x1="14" y1="-14" x2="20" y2="-22" stroke="#F4C94C" stroke-width="4" stroke-linecap="round"/>
  <line x1="-20" y1="-2" x2="-30" y2="-2" stroke="#F4C94C" stroke-width="4" stroke-linecap="round"/>
  <line x1="20" y1="-2" x2="30" y2="-2" stroke="#F4C94C" stroke-width="4" stroke-linecap="round"/>
  <path d="M -14 6 Q 0 22, 14 6" stroke="#F4C94C" stroke-width="4.5" fill="none" stroke-linecap="round"/>
</g>
<g transform="translate(800.0,105.0) scale(1.05)" opacity="0.5">
  <animate attributeName="opacity" values="0.3;0.62;0.3" dur="4.8s" begin="3.7s" repeatCount="indefinite"/>
  <line x1="-14" y1="-14" x2="-20" y2="-22" stroke="#F4C94C" stroke-width="4" stroke-linecap="round"/>
  <line x1="0" y1="-18" x2="0" y2="-28" stroke="#F4C94C" stroke-width="4" stroke-linecap="round"/>
  <line x1="14" y1="-14" x2="20" y2="-22" stroke="#F4C94C" stroke-width="4" stroke-linecap="round"/>
  <line x1="-20" y1="-2" x2="-30" y2="-2" stroke="#F4C94C" stroke-width="4" stroke-linecap="round"/>
  <line x1="20" y1="-2" x2="30" y2="-2" stroke="#F4C94C" stroke-width="4" stroke-linecap="round"/>
  <path d="M -14 6 Q 0 22, 14 6" stroke="#F4C94C" stroke-width="4.5" fill="none" stroke-linecap="round"/>
</g>
<g transform="translate(923.1,105.0) scale(0.72)" opacity="0.5">
  <animate attributeName="opacity" values="0.3;0.62;0.3" dur="5.9s" begin="3.8s" repeatCount="indefinite"/>
  <line x1="-14" y1="-14" x2="-20" y2="-22" stroke="#F4C94C" stroke-width="4" stroke-linecap="round"/>
  <line x1="0" y1="-18" x2="0" y2="-28" stroke="#F4C94C" stroke-width="4" stroke-linecap="round"/>
  <line x1="14" y1="-14" x2="20" y2="-22" stroke="#F4C94C" stroke-width="4" stroke-linecap="round"/>
  <line x1="-20" y1="-2" x2="-30" y2="-2" stroke="#F4C94C" stroke-width="4" stroke-linecap="round"/>
  <line x1="20" y1="-2" x2="30" y2="-2" stroke="#F4C94C" stroke-width="4" stroke-linecap="round"/>
  <path d="M -14 6 Q 0 22, 14 6" stroke="#F4C94C" stroke-width="4.5" fill="none" stroke-linecap="round"/>
</g>
<g transform="translate(1046.2,105.0) scale(0.97)" opacity="0.5">
  <animate attributeName="opacity" values="0.3;0.62;0.3" dur="5.9s" begin="1.3s" repeatCount="indefinite"/>
  <line x1="-14" y1="-14" x2="-20" y2="-22" stroke="#F4C94C" stroke-width="4" stroke-linecap="round"/>
  <line x1="0" y1="-18" x2="0" y2="-28" stroke="#F4C94C" stroke-width="4" stroke-linecap="round"/>
  <line x1="14" y1="-14" x2="20" y2="-22" stroke="#F4C94C" stroke-width="4" stroke-linecap="round"/>
  <line x1="-20" y1="-2" x2="-30" y2="-2" stroke="#F4C94C" stroke-width="4" stroke-linecap="round"/>
  <line x1="20" y1="-2" x2="30" y2="-2" stroke="#F4C94C" stroke-width="4" stroke-linecap="round"/>
  <path d="M -14 6 Q 0 22, 14 6" stroke="#F4C94C" stroke-width="4.5" fill="none" stroke-linecap="round"/>
</g>
<g transform="translate(1169.2,105.0) scale(0.88)" opacity="0.5">
  <animate attributeName="opacity" values="0.3;0.62;0.3" dur="6.3s" begin="1.7s" repeatCount="indefinite"/>
  <line x1="-14" y1="-14" x2="-20" y2="-22" stroke="#F4C94C" stroke-width="4" stroke-linecap="round"/>
  <line x1="0" y1="-18" x2="0" y2="-28" stroke="#F4C94C" stroke-width="4" stroke-linecap="round"/>
  <line x1="14" y1="-14" x2="20" y2="-22" stroke="#F4C94C" stroke-width="4" stroke-linecap="round"/>
  <line x1="-20" y1="-2" x2="-30" y2="-2" stroke="#F4C94C" stroke-width="4" stroke-linecap="round"/>
  <line x1="20" y1="-2" x2="30" y2="-2" stroke="#F4C94C" stroke-width="4" stroke-linecap="round"/>
  <path d="M -14 6 Q 0 22, 14 6" stroke="#F4C94C" stroke-width="4.5" fill="none" stroke-linecap="round"/>
</g>
<g transform="translate(1292.3,105.0) scale(0.70)" opacity="0.5">
  <animate attributeName="opacity" values="0.3;0.62;0.3" dur="7.0s" begin="2.8s" repeatCount="indefinite"/>
  <line x1="-14" y1="-14" x2="-20" y2="-22" stroke="#F4C94C" stroke-width="4" stroke-linecap="round"/>
  <line x1="0" y1="-18" x2="0" y2="-28" stroke="#F4C94C" stroke-width="4" stroke-linecap="round"/>
  <line x1="14" y1="-14" x2="20" y2="-22" stroke="#F4C94C" stroke-width="4" stroke-linecap="round"/>
  <line x1="-20" y1="-2" x2="-30" y2="-2" stroke="#F4C94C" stroke-width="4" stroke-linecap="round"/>
  <line x1="20" y1="-2" x2="30" y2="-2" stroke="#F4C94C" stroke-width="4" stroke-linecap="round"/>
  <path d="M -14 6 Q 0 22, 14 6" stroke="#F4C94C" stroke-width="4.5" fill="none" stroke-linecap="round"/>
</g>
<g transform="translate(1415.4,105.0) scale(0.76)" opacity="0.5">
  <animate attributeName="opacity" values="0.3;0.62;0.3" dur="6.7s" begin="1.8s" repeatCount="indefinite"/>
  <line x1="-14" y1="-14" x2="-20" y2="-22" stroke="#F4C94C" stroke-width="4" stroke-linecap="round"/>
  <line x1="0" y1="-18" x2="0" y2="-28" stroke="#F4C94C" stroke-width="4" stroke-linecap="round"/>
  <line x1="14" y1="-14" x2="20" y2="-22" stroke="#F4C94C" stroke-width="4" stroke-linecap="round"/>
  <line x1="-20" y1="-2" x2="-30" y2="-2" stroke="#F4C94C" stroke-width="4" stroke-linecap="round"/>
  <line x1="20" y1="-2" x2="30" y2="-2" stroke="#F4C94C" stroke-width="4" stroke-linecap="round"/>
  <path d="M -14 6 Q 0 22, 14 6" stroke="#F4C94C" stroke-width="4.5" fill="none" stroke-linecap="round"/>
</g>
<g transform="translate(1538.5,105.0) scale(0.84)" opacity="0.5">
  <animate attributeName="opacity" values="0.3;0.62;0.3" dur="5.0s" begin="0.8s" repeatCount="indefinite"/>
  <line x1="-14" y1="-14" x2="-20" y2="-22" stroke="#F4C94C" stroke-width="4" stroke-linecap="round"/>
  <line x1="0" y1="-18" x2="0" y2="-28" stroke="#F4C94C" stroke-width="4" stroke-linecap="round"/>
  <line x1="14" y1="-14" x2="20" y2="-22" stroke="#F4C94C" stroke-width="4" stroke-linecap="round"/>
  <line x1="-20" y1="-2" x2="-30" y2="-2" stroke="#F4C94C" stroke-width="4" stroke-linecap="round"/>
  <line x1="20" y1="-2" x2="30" y2="-2" stroke="#F4C94C" stroke-width="4" stroke-linecap="round"/>
  <path d="M -14 6 Q 0 22, 14 6" stroke="#F4C94C" stroke-width="4.5" fill="none" stroke-linecap="round"/>
</g></g>
    </g>
  </g>

  <rect width="1600" height="140" fill="none" stroke="#F4C94C" stroke-opacity="0.25" stroke-width="2"/>
</svg>
